<svg width="31" height="31" viewBox="0 0 31 31" fill="none" xmlns="http://www.w3.org/2000/svg">
<path d="M24.3851 23.7909L28.2351 27.6659L26.4976 29.4034L22.5976 25.5659C21.7351 26.1034 20.7101 26.4159 19.6226 26.4159C16.4976 26.4159 13.9976 23.9159 13.9976 20.7909C13.9976 17.6659 16.4976 15.1659 19.6226 15.1659C22.7476 15.1659 25.2476 17.6659 25.2476 20.7909C25.2476 21.8909 24.9351 22.9284 24.3851 23.7909ZM19.6226 23.9159C21.3476 23.9159 22.7476 22.5159 22.7476 20.7909C22.7476 19.0659 21.3476 17.6659 19.6226 17.6659C17.8976 17.6659 16.4976 19.0659 16.4976 20.7909C16.4976 22.5159 17.8976 23.9159 19.6226 23.9159ZM26.4976 5.16595V7.66595H3.99756V5.16595H26.4976ZM3.99756 20.1659V17.6659H11.4976V20.1659H3.99756ZM3.99756 13.9159V11.4159H26.4976V13.9159H23.9601C22.6976 13.1284 21.2101 12.6659 19.6226 12.6659C18.0351 12.6659 16.5476 13.1284 15.2851 13.9159H3.99756Z" fill="#B2BEC3"/>
</svg>
