<svg width="21" height="19" viewBox="0 0 21 19" fill="none" xmlns="http://www.w3.org/2000/svg">
<path d="M10.8778 15.9896L10.7778 16.0896L10.6678 15.9896C5.91783 11.6796 2.77783 8.82958 2.77783 5.93958C2.77783 3.93958 4.27783 2.43958 6.27783 2.43958C7.81783 2.43958 9.31783 3.43958 9.84783 4.79958H11.7078C12.2378 3.43958 13.7378 2.43958 15.2778 2.43958C17.2778 2.43958 18.7778 3.93958 18.7778 5.93958C18.7778 8.82958 15.6378 11.6796 10.8778 15.9896ZM15.2778 0.439575C13.5378 0.439575 11.8678 1.24958 10.7778 2.51958C9.68783 1.24958 8.01783 0.439575 6.27783 0.439575C3.19783 0.439575 0.777832 2.84958 0.777832 5.93958C0.777832 9.70958 4.17783 12.7996 9.32783 17.4696L10.7778 18.7896L12.2278 17.4696C17.3778 12.7996 20.7778 9.70958 20.7778 5.93958C20.7778 2.84958 18.3578 0.439575 15.2778 0.439575Z" fill="black"/>
</svg>
